<?xml version="1.0" encoding="utf-8"?>
<!-- Generator: Adobe Illustrator 21.0.2, SVG Export Plug-In . SVG Version: 6.00 Build 0)  -->
<svg version="1.1" id="Layer_1" xmlns="http://www.w3.org/2000/svg" xmlns:xlink="http://www.w3.org/1999/xlink" x="0px" y="0px"
	 viewBox="0 0 100 100" style="enable-background:new 0 0 100 100;" xml:space="preserve">
<path d="M88,8H34c-3.9,0-7,3.1-7,7v4c0,3.9,3.1,7,7,7h54c3.9,0,7-3.1,7-7v-4C95,11.1,91.9,8,88,8z M89,19c0,0.6-0.4,1-1,1H34
	c-0.6,0-1-0.4-1-1v-4c0-0.6,0.4-1,1-1h54c0.6,0,1,0.4,1,1V19z M16,8h-4c-3.9,0-7,3.1-7,7v4c0,3.9,3.1,7,7,7h4c3.9,0,7-3.1,7-7v-4
	C23,11.1,19.9,8,16,8z M17,19c0,0.6-0.4,1-1,1h-4c-0.6,0-1-0.4-1-1v-4c0-0.6,0.4-1,1-1h4c0.6,0,1,0.4,1,1V19z M88,30H34
	c-3.9,0-7,3.1-7,7v4c0,3.9,3.1,7,7,7h54c3.9,0,7-3.1,7-7v-4C95,33.1,91.9,30,88,30z M89,41c0,0.6-0.4,1-1,1H34c-0.6,0-1-0.4-1-1v-4
	c0-0.6,0.4-1,1-1h54c0.6,0,1,0.4,1,1V41z M16,30h-4c-3.9,0-7,3.1-7,7v4c0,3.9,3.1,7,7,7h4c3.9,0,7-3.1,7-7v-4C23,33.1,19.9,30,16,30
	z M17,41c0,0.6-0.4,1-1,1h-4c-0.6,0-1-0.4-1-1v-4c0-0.6,0.4-1,1-1h4c0.6,0,1,0.4,1,1V41z M88,52H34c-3.9,0-7,3.1-7,7v4
	c0,3.9,3.1,7,7,7h54c3.9,0,7-3.1,7-7v-4C95,55.1,91.9,52,88,52z M89,63c0,0.6-0.4,1-1,1H34c-0.6,0-1-0.4-1-1v-4c0-0.6,0.4-1,1-1h54
	c0.6,0,1,0.4,1,1V63z M16,52h-4c-3.9,0-7,3.1-7,7v4c0,3.9,3.1,7,7,7h4c3.9,0,7-3.1,7-7v-4C23,55.1,19.9,52,16,52z M17,63
	c0,0.6-0.4,1-1,1h-4c-0.6,0-1-0.4-1-1v-4c0-0.6,0.4-1,1-1h4c0.6,0,1,0.4,1,1V63z M88,74H34c-3.9,0-7,3.1-7,7v4c0,3.9,3.1,7,7,7h54
	c3.9,0,7-3.1,7-7v-4C95,77.1,91.9,74,88,74z M89,85c0,0.6-0.4,1-1,1H34c-0.6,0-1-0.4-1-1v-4c0-0.6,0.4-1,1-1h54c0.6,0,1,0.4,1,1V85z
	 M16,74h-4c-3.9,0-7,3.1-7,7v4c0,3.9,3.1,7,7,7h4c3.9,0,7-3.1,7-7v-4C23,77.1,19.9,74,16,74z M17,85c0,0.6-0.4,1-1,1h-4
	c-0.6,0-1-0.4-1-1v-4c0-0.6,0.4-1,1-1h4c0.6,0,1,0.4,1,1V85z"/>
</svg>
